<svg xmlns="http://www.w3.org/2000/svg" xmlns:xlink="http://www.w3.org/1999/xlink" width="24" height="24" viewBox="0 0 24 24">
  <defs>
    <clipPath id="clip-path">
      <rect id="Rectangle_466" data-name="Rectangle 466" width="20.14" height="22" transform="translate(0 0)" fill="#fff"/>
    </clipPath>
  </defs>
  <g id="Group_103" data-name="Group 103" transform="translate(-1659.36 -825.735)">
    <rect id="Rectangle_467" data-name="Rectangle 467" width="24" height="24" transform="translate(1659.36 825.735)" fill="none"/>
    <g id="Group_102" data-name="Group 102" transform="translate(1661.29 826.735)">
      <g id="Group_101" data-name="Group 101" clip-path="url(#clip-path)">
        <path id="Path_65" data-name="Path 65" d="M20.007,6.356a.606.606,0,0,0-.194-.2L9.258.082a1.194,1.194,0,0,0-.2-.061L8.972,0H8.931a.7.7,0,0,0-.317.082L2.483,3.444l-.072.051-.02.031a.438.438,0,0,0-.153.153.675.675,0,0,0-.051.153.408.408,0,0,0-.041.184v4.4a.6.6,0,0,0,.072.3L.307,9.891A1.166,1.166,0,0,0,.194,10a.508.508,0,0,0-.112.133l-.051.133L0,10.423v7.112a.678.678,0,0,0,.317.572l6.3,3.8A.634.634,0,0,0,6.948,22a.643.643,0,0,0,.337-.092l12.528-7.357a.687.687,0,0,0,.327-.572V6.724a.583.583,0,0,0-.133-.368M3.464,5.2,5.671,6.57,3.464,7.94Zm2.83,14.97-4.976-3v-5.61l4.976,2.677ZM18.822,13.6,7.613,20.181V14.224L18.822,7.858Z" transform="translate(0 0)" fill="#fff"/>
      </g>
    </g>
  </g>
</svg>
