<svg xmlns="http://www.w3.org/2000/svg" xmlns:xlink="http://www.w3.org/1999/xlink" width="32" height="32" viewBox="0 0 32 32">
  <defs>
    <clipPath id="clip-path">
      <rect id="Rectangle_74" data-name="Rectangle 74" width="27.596" height="20.872" fill="#35174d"/>
    </clipPath>
  </defs>
  <g id="Group_51" data-name="Group 51" transform="translate(0.309)">
    <rect id="Rectangle_75" data-name="Rectangle 75" width="32" height="32" transform="translate(-0.309)" fill="none"/>
    <g id="Group_50" data-name="Group 50" transform="translate(2.104 5.493)">
      <g id="Group_49" data-name="Group 49" transform="translate(0 0)" clip-path="url(#clip-path)">
        <path id="Path_54" data-name="Path 54" d="M14.739,8.721a3.484,3.484,0,1,1-3.484-3.484,3.484,3.484,0,0,1,3.484,3.484" transform="translate(2.544 1.715)" fill="#35174d"/>
        <path id="Path_55" data-name="Path 55" d="M7.211,16.831a.859.859,0,0,1-.563-.21,9.222,9.222,0,0,1,0-13.969A.863.863,0,1,1,7.775,3.958a7.5,7.5,0,0,0,0,11.357.863.863,0,0,1-.564,1.516Z" transform="translate(1.128 0.8)" fill="#35174d"/>
        <path id="Path_56" data-name="Path 56" d="M14.72,16.831a.863.863,0,0,1-.564-1.516,7.5,7.5,0,0,0,0-11.357.863.863,0,1,1,1.128-1.306,9.222,9.222,0,0,1,0,13.969A.86.86,0,0,1,14.72,16.831Z" transform="translate(4.536 0.8)" fill="#35174d"/>
        <path id="Path_57" data-name="Path 57" d="M4.284,16.382a.86.86,0,0,1-.579-.224,13.668,13.668,0,0,1-1-1A.863.863,0,1,1,3.993,14a11.939,11.939,0,0,0,.871.877.863.863,0,0,1-.58,1.5Z" transform="translate(0.814 4.49)" fill="#35174d"/>
        <path id="Path_58" data-name="Path 58" d="M1.8,15.119a.863.863,0,0,1-.8-.532,13.742,13.742,0,0,1-.857-2.974.863.863,0,1,1,1.7-.288,12.013,12.013,0,0,0,.749,2.6.863.863,0,0,1-.8,1.194ZM1,7.992A.864.864,0,0,1,.148,6.985,13.724,13.724,0,0,1,1.005,4.01.863.863,0,1,1,2.6,4.672a12,12,0,0,0-.749,2.6A.863.863,0,0,1,1,7.992Z" transform="translate(0.045 1.139)" fill="#35174d"/>
        <path id="Path_59" data-name="Path 59" d="M3.35,2.667a.863.863,0,0,1-.641-1.44c.316-.352.651-.689,1-1A.863.863,0,0,1,4.865,1.5c-.3.275-.6.571-.874.88A.861.861,0,0,1,3.35,2.667Z" transform="translate(0.814 0)" fill="#35174d"/>
        <path id="Path_60" data-name="Path 60" d="M18.1,2.667a.861.861,0,0,1-.643-.287,11.939,11.939,0,0,0-.871-.877A.863.863,0,0,1,17.741.224a13.671,13.671,0,0,1,1,1A.863.863,0,0,1,18.1,2.667Z" transform="translate(5.336 0)" fill="#35174d"/>
        <path id="Path_61" data-name="Path 61" d="M19.612,15.117a.863.863,0,0,1-.8-1.194,12,12,0,0,0,.749-2.6.863.863,0,1,1,1.7.287,13.724,13.724,0,0,1-.857,2.975A.863.863,0,0,1,19.612,15.117Zm.8-7.128a.863.863,0,0,1-.85-.719,12.013,12.013,0,0,0-.749-2.6.863.863,0,0,1,1.594-.662,13.742,13.742,0,0,1,.857,2.974.864.864,0,0,1-.852,1.007Z" transform="translate(6.138 1.138)" fill="#35174d"/>
        <path id="Path_62" data-name="Path 62" d="M17.162,16.382a.863.863,0,0,1-.581-1.5c.3-.275.6-.571.874-.88a.863.863,0,1,1,1.283,1.154c-.316.352-.651.689-1,1A.86.86,0,0,1,17.162,16.382Z" transform="translate(5.336 4.49)" fill="#35174d"/>
      </g>
    </g>
  </g>
</svg>
