<svg xmlns="http://www.w3.org/2000/svg" xmlns:xlink="http://www.w3.org/1999/xlink" width="32" height="32" viewBox="0 0 32 32">
  <defs>
    <clipPath id="clip-path">
      <rect id="Rectangle_76" data-name="Rectangle 76" width="24.595" height="29.265" fill="#35174d"/>
    </clipPath>
  </defs>
  <g id="Group_54" data-name="Group 54" transform="translate(0.309)">
    <rect id="Rectangle_77" data-name="Rectangle 77" width="32" height="32" transform="translate(-0.309)" fill="none"/>
    <g id="Group_53" data-name="Group 53" transform="translate(4.932 1.296)">
      <g id="Group_52" data-name="Group 52" transform="translate(0 0)" clip-path="url(#clip-path)">
        <path id="Ellipse_8" data-name="Ellipse 8" d="M3.513-.65A4.163,4.163,0,1,1-.65,3.513,4.167,4.167,0,0,1,3.513-.65Zm0,6.6A2.437,2.437,0,1,0,1.076,3.513,2.44,2.44,0,0,0,3.513,5.95Z" transform="translate(7.494 0.649)" fill="#35174d"/>
        <path id="Path_55" data-name="Path 55" d="M12.465,17.649a.863.863,0,1,1,0-1.726.805.805,0,0,0,.8-.8V9.057a.8.8,0,0,0-.8-.8H6.772a.8.8,0,0,0-.8.8v6.062a.805.805,0,0,0,.8.8.863.863,0,1,1,0,1.726,2.533,2.533,0,0,1-2.53-2.53V9.057a2.532,2.532,0,0,1,2.53-2.529h5.693A2.532,2.532,0,0,1,15,9.057v6.062A2.533,2.533,0,0,1,12.465,17.649Z" transform="translate(1.389 2.137)" fill="#35174d"/>
        <path id="Path_56" data-name="Path 56" d="M10.3,23.9H8.082a2.451,2.451,0,0,1-2.53-2.357v-4.3a.863.863,0,1,1,1.726,0v4.3a.744.744,0,0,0,.8.632H10.3a.744.744,0,0,0,.8-.632v-4.3a.863.863,0,1,1,1.726,0v4.3A2.451,2.451,0,0,1,10.3,23.9Z" transform="translate(1.818 5.362)" fill="#35174d"/>
        <path id="Path_57" data-name="Path 57" d="M11.007,20.154A19.522,19.522,0,0,1,3.492,18.8C1.24,17.828,0,16.447,0,14.911s1.24-2.917,3.491-3.89a15.226,15.226,0,0,1,2.82-.877.863.863,0,1,1,.362,1.687,13.5,13.5,0,0,0-2.5.774c-1.534.663-2.45,1.525-2.45,2.306,0,1.66,3.969,3.518,9.281,3.518s9.281-1.857,9.281-3.518a.863.863,0,0,1,1.726,0c0,1.536-1.24,2.917-3.492,3.89A19.522,19.522,0,0,1,11.007,20.154Z" transform="translate(0 3.314)" fill="#35174d"/>
        <path id="Path_58" data-name="Path 58" d="M13.34,14.629l3.653-3.3,3.236,3.421Z" transform="translate(4.367 3.707)" fill="#35174d"/>
      </g>
    </g>
  </g>
</svg>
