<svg xmlns="http://www.w3.org/2000/svg" xmlns:xlink="http://www.w3.org/1999/xlink" width="102" height="102" viewBox="0 0 102 102">
  <defs>
    <clipPath id="clip-path">
      <rect id="Rectangle_55" data-name="Rectangle 55" width="67.351" height="79.763" fill="#35174d"/>
    </clipPath>
  </defs>
  <g id="Group_34" data-name="Group 34" transform="translate(-1362 -1085)">
    <g id="Group_33" data-name="Group 33" transform="translate(1382 1096)">
      <g id="Group_32" data-name="Group 32" clip-path="url(#clip-path)">
        <path id="Ellipse_8" data-name="Ellipse 8" d="M11.013,0A11.013,11.013,0,1,1,0,11.013,11.026,11.026,0,0,1,11.013,0Zm0,18.2A7.183,7.183,0,1,0,3.83,11.013,7.191,7.191,0,0,0,11.013,18.2Z" transform="translate(17.356 20.266) rotate(-81.449)" fill="#35174d"/>
        <path id="Path_39" data-name="Path 39" d="M65.666,176.322H59.557a6.3,6.3,0,0,1-6.512-6.036V158.423a1.915,1.915,0,0,1,3.83,0v11.863a2.513,2.513,0,0,0,2.681,2.206h6.109a2.513,2.513,0,0,0,2.681-2.206V158.423a1.915,1.915,0,1,1,3.83,0v11.863A6.3,6.3,0,0,1,65.666,176.322Z" transform="translate(-32.727 -96.559)" fill="#35174d"/>
        <path id="Path_40" data-name="Path 40" d="M29.885,123.457C12.848,123.457,0,117.441,0,109.464c0-4.038,3.32-7.7,9.348-10.3a41.468,41.468,0,0,1,7.689-2.393c1.034-.222,1.585.434,1.807,1.468s.032,2.054-1,2.277a37.649,37.649,0,0,0-6.975,2.165c-4.472,1.931-7.036,4.4-7.036,6.782,0,4.807,10.7,10.163,26.054,10.163s26.054-5.356,26.054-10.163a1.915,1.915,0,0,1,3.83,0C59.769,117.441,46.922,123.457,29.885,123.457Z" transform="translate(0 -59.678)" fill="#ff4678"/>
        <path id="Path_41" data-name="Path 41" d="M126.246,116.1,136.317,107l8.923,9.432Z" transform="translate(-77.889 -66.012)" fill="#ff4678"/>
        <path id="Path_38" data-name="Path 38" d="M62.739,92.1a1.915,1.915,0,1,1,0-3.83,2.684,2.684,0,0,0,2.681-2.681V68.879A2.684,2.684,0,0,0,62.739,66.2h-15.7a2.684,2.684,0,0,0-2.681,2.681V85.592a2.684,2.684,0,0,0,2.681,2.681,1.915,1.915,0,1,1,0,3.83,6.519,6.519,0,0,1-6.512-6.512V68.879a6.519,6.519,0,0,1,6.512-6.512h15.7a6.519,6.519,0,0,1,6.512,6.512V85.592A6.519,6.519,0,0,1,62.739,92.1Z" transform="translate(-25.005 -38.478)" fill="#35174d"/>
      </g>
    </g>
    <rect id="Rectangle_62" data-name="Rectangle 62" width="102" height="102" transform="translate(1362 1085)" fill="none"/>
  </g>
</svg>
