<svg xmlns="http://www.w3.org/2000/svg" xmlns:xlink="http://www.w3.org/1999/xlink" width="102" height="102" viewBox="0 0 102 102">
  <defs>
    <clipPath id="clip-path">
      <rect id="Rectangle_19" data-name="Rectangle 19" width="72.436" height="79.253" fill="#35174d"/>
    </clipPath>
  </defs>
  <g id="Group_37" data-name="Group 37" transform="translate(-460 -1084)">
    <g id="Group_7" data-name="Group 7" transform="translate(475 1094.941)">
      <g id="Group_6" data-name="Group 6" clip-path="url(#clip-path)">
        <path id="Path_16" data-name="Path 16" d="M72.431,23.862c0-.026,0-.052-.005-.078a1.668,1.668,0,0,0-.147-.546c-.01-.022-.021-.044-.033-.067a1.659,1.659,0,0,0-.141-.229l-.011-.017a1.667,1.667,0,0,0-.194-.21l-.057-.05a1.644,1.644,0,0,0-.237-.172l-.005,0,0,0L32.887.222a1.607,1.607,0,0,0-.149-.073c-.015-.007-.029-.015-.044-.022a1.673,1.673,0,0,0-.271-.084L32.349.029A1.669,1.669,0,0,0,32.064,0h-.014a1.675,1.675,0,0,0-.3.03l-.073.015a1.622,1.622,0,0,0-.271.084l-.021.009A1.672,1.672,0,0,0,31.2.231L8.516,13.6h0l-.011.007-.015.011a1.675,1.675,0,0,0-.225.165c-.019.016-.037.032-.056.049a1.686,1.686,0,0,0-.191.21c-.01.013-.018.028-.028.042a1.646,1.646,0,0,0-.125.207c-.011.022-.023.044-.033.067a1.661,1.661,0,0,0-.1.264c0,.011,0,.023-.007.034a1.651,1.651,0,0,0-.039.247c0,.027,0,.054-.005.081s0,.042,0,.063V32.13L.82,36.194l0,0h0a1.667,1.667,0,0,0-.235.174c-.02.017-.039.034-.057.051a1.655,1.655,0,0,0-.19.21c-.007.01-.013.02-.02.03a1.7,1.7,0,0,0-.13.219c-.011.022-.022.043-.031.065a1.659,1.659,0,0,0-.1.266c0,.009,0,.017-.005.026a1.634,1.634,0,0,0-.04.256c0,.025,0,.05-.005.075s0,.041,0,.063v26a1.671,1.671,0,0,0,.808,1.432L23.923,79.012l.018.009.015.01c.031.018.063.031.095.046s.06.031.091.044.081.029.122.042.059.022.088.03c.046.012.093.02.14.028.025,0,.05.012.076.015a1.632,1.632,0,0,0,.435,0c.023,0,.046-.009.07-.013.048-.008.1-.016.143-.028.027-.007.054-.018.081-.027.042-.014.085-.026.127-.043s.055-.026.082-.039.071-.031.1-.05l.012-.008.012-.006L71.611,52.013a1.671,1.671,0,0,0,.825-1.442V23.94c0-.026,0-.052-.005-.078M46.966,35.541,33.725,27.908V4.562L67.4,23.931Zm-22.2,12.617-3.222-1.734,4.142-2.638a1.671,1.671,0,0,0,.774-1.41V34.614l5.659-3.773,11.477,6.616ZM11.024,17.942,21.472,23.96,11.024,30.149Zm1.649-2.909L30.381,4.6V27.979l-3.923,2.616V23.929a1.675,1.675,0,0,0-.03-.29c0-.025-.01-.049-.015-.074a1.688,1.688,0,0,0-.084-.27l-.009-.02a1.64,1.64,0,0,0-.129-.237l-.041-.062a1.656,1.656,0,0,0-.4-.4c-.021-.015-.043-.029-.065-.043s-.041-.03-.064-.043Zm-2.489,19.5.037-.022,12.893-7.638V41.459l-4.946,3.15-13.1-7.047Zm-6.84,5.9,14.1,7.586.009,0,5.663,3.047V74.619L3.344,62.692Zm65.748,9.184L26.458,74.659V51.042L47.781,38.924l.007,0,21.3-12.107Z" transform="translate(0 0.001)" fill="#35174d"/>
      </g>
    </g>
    <rect id="Rectangle_65" data-name="Rectangle 65" width="102" height="102" transform="translate(460 1084)" fill="none"/>
  </g>
</svg>
