<svg xmlns="http://www.w3.org/2000/svg" xmlns:xlink="http://www.w3.org/1999/xlink" width="149" height="49.308" viewBox="0 0 149 49.308">
  <defs>
    <clipPath id="clip-path">
      <rect id="Rectangle_13" data-name="Rectangle 13" width="148.698" height="45.975" fill="none"/>
    </clipPath>
  </defs>
  <g id="Group_14" data-name="Group 14" transform="translate(-226 -34)">
    <g id="Group_3" data-name="Group 3" transform="translate(226 37.334)">
      <g id="Group_2" data-name="Group 2" transform="translate(0 0)" clip-path="url(#clip-path)">
        <path id="Path_4" data-name="Path 4" d="M19.258,12.933l-.007.04c-.066.395-.135.788-.21,1.18q-.26,1.387-.584,2.742a56.186,56.186,0,0,1-6.651,16.151c-.561.919-1.143,1.817-1.755,2.7a1.823,1.823,0,1,1-2.938-2.156.1.1,0,0,1,.021-.026l.087-.1,0,0q.986-1.14,1.877-2.363A36.237,36.237,0,0,0,15.88,13.359l.047-.479c.005-.079.014-.157.019-.234a3.611,3.611,0,0,0,1.933.556,3.71,3.71,0,0,0,1.379-.269" transform="translate(5.035 9.454)" fill="#0077c0"/>
        <path id="Path_5" data-name="Path 5" d="M15.7,11.874a1.824,1.824,0,0,1-3.074,1.1,2.156,2.156,0,0,1-.187-.211l-.009-.012a1.805,1.805,0,0,1-.353-.884,2.011,2.011,0,0,1-.01-.206,1.969,1.969,0,0,1,.01-.2,1.823,1.823,0,0,1,3.635.2,1.544,1.544,0,0,1-.007.156l-.005.061" transform="translate(9.023 7.353)" fill="#0077c0"/>
        <path id="Path_6" data-name="Path 6" d="M17.591,12.828a20.858,20.858,0,0,1-8.785,4.121c-.255.052-.51.1-.767.145-.206.035-.412.065-.62.094-.1.014-.208.03-.311.042-.313.038-.629.07-.944.093-.107.01-.211.017-.318.023-.122.009-.246.014-.37.019-.152.007-.306.012-.458.016s-.3.005-.449.005H4.554a4.558,4.558,0,0,1,0-9.115c.152,0,.308,0,.46.005s.3.007.456.016c.054,0,.108.005.161.009.175.007.35.017.524.033.145.01.29.023.435.038s.288.028.432.047.288.035.43.054c.2.028.388.058.582.091.068.01.135.023.2.035l.089.016c.037.009.075.016.112.023s.089.016.135.024c.093.019.183.037.274.058a1.746,1.746,0,0,1,.171.037.406.406,0,0,1,.049.009c.017,0,.035.007.052.012.065.012.131.028.194.044.08.019.161.037.239.058l.007,0c.294.07.584.149.872.232.1.03.2.061.3.091s.2.065.3.094.2.066.3.1c.2.068.395.138.592.213l.294.114c.194.075.386.156.58.238.094.04.19.082.285.126s.19.086.285.129l.283.133c.187.093.374.185.557.281.091.047.182.1.276.147.182.1.362.2.54.3.147.084.29.17.433.257.094.058.187.117.28.175.35.22.692.453,1.026.692.093.066.185.133.276.2.183.136.367.278.545.419" transform="translate(0 6.183)" fill="#7ea036"/>
        <path id="Path_7" data-name="Path 7" d="M9.47,1.884C9.38,1.821,9.293,1.758,9.2,1.7c-.021-.014-.044-.028-.065-.044s-.042-.03-.065-.044c-.084-.058-.17-.115-.255-.17l-.082-.052c-.017-.012-.035-.024-.056-.037Q7.912.858,7.1.433L6.757.259c.03.021.061.038.091.059l-.1-.061,0,0C6.673.217,6.6.177,6.52.138A1.8,1.8,0,0,0,5.826,0,1.826,1.826,0,0,0,4.337.772c-.044.07-.084.14-.126.208l.01-.019c-.121.2-.239.395-.358.594-.021.04-.045.08-.068.121A34.027,34.027,0,0,0,1.572,6.251a4.532,4.532,0,0,0-.414,1.961A4.634,4.634,0,0,0,5.2,12.666l0,0,.016,0,.058.005.509.052.107.009c.241.023.481.051.718.08.119.016.238.031.355.049s.234.035.351.054.238.038.357.059c.234.042.467.087.7.135s.463.1.692.157l.343.086a22.721,22.721,0,0,1,8.722,4.437l.218.187-.019-.376A20.953,20.953,0,0,0,9.47,1.884M6.181,12.679l.014,0-.014,0" transform="translate(0.866 0.001)" fill="#7ea036"/>
        <path id="Path_8" data-name="Path 8" d="M9.47,27.565c-.089.063-.177.126-.269.187-.021.014-.044.028-.065.044s-.042.03-.065.044c-.084.058-.17.115-.255.17l-.082.052c-.017.012-.035.024-.056.037q-.765.493-1.578.917l-.343.175c.03-.021.061-.038.091-.059l-.1.061,0,0c-.075.038-.15.079-.229.117a1.8,1.8,0,0,1-.694.138,1.826,1.826,0,0,1-1.489-.772c-.044-.07-.084-.14-.126-.208l.01.019c-.121-.2-.239-.395-.358-.594-.021-.04-.045-.08-.068-.121A34.027,34.027,0,0,1,1.572,23.2a4.532,4.532,0,0,1-.414-1.961A4.634,4.634,0,0,1,5.2,16.782l0,0,.016,0,.058-.005.509-.052.107-.009c.241-.023.481-.051.718-.08.119-.016.238-.031.355-.049s.234-.035.351-.054.238-.038.357-.059c.234-.042.467-.087.7-.135s.463-.1.692-.157l.343-.086a22.721,22.721,0,0,0,8.722-4.437l.218-.187-.019.376A20.953,20.953,0,0,1,9.47,27.565M6.181,16.77l.014,0-.014,0" transform="translate(0.866 8.573)" fill="#7ea036"/>
        <path id="Path_9" data-name="Path 9" d="M46.234,28.057l-8.47-8.89,8.5-9.238a2.736,2.736,0,1,0-4.025-3.708l-8.013,8.7V8.062a2.734,2.734,0,1,0-5.468,0V29.936a2.734,2.734,0,1,0,5.468,0V23.391l8.044,8.442a2.737,2.737,0,0,0,3.962-3.776" transform="translate(21.5 3.983)" fill="#7ea036"/>
        <path id="Path_10" data-name="Path 10" d="M32.781,10.8a2.735,2.735,0,0,0,0-5.47H20.048a2.763,2.763,0,0,0-2.763,2.763V30.231a2.443,2.443,0,0,0,2.443,2.443H32.781a2.735,2.735,0,0,0,0-5.47H22.755V21.738h8.189a2.734,2.734,0,0,0,0-5.468H22.755V10.8Z" transform="translate(12.921 3.985)" fill="#7ea036"/>
        <path id="Path_11" data-name="Path 11" d="M69.938,19.659v-6.38a2.733,2.733,0,0,0-4.881-1.69,9.114,9.114,0,1,0,0,16.142,2.733,2.733,0,0,0,4.881-1.692v-6.38Zm-9.115,3.8a3.646,3.646,0,1,1,3.645-3.647v0a3.646,3.646,0,0,1-3.645,3.645" transform="translate(38.655 7.884)" fill="#0077c0"/>
        <path id="Path_12" data-name="Path 12" d="M92.887,19.659h0v-6.38a2.733,2.733,0,0,0-4.881-1.69,9.114,9.114,0,1,0,0,16.142,2.733,2.733,0,0,0,4.881-1.692v-6.38Zm-9.115,3.8a3.646,3.646,0,1,1,3.645-3.647v0a3.646,3.646,0,0,1-3.645,3.645" transform="translate(55.81 7.884)" fill="#0077c0"/>
        <path id="Path_13" data-name="Path 13" d="M49.349,14.445a9.086,9.086,0,0,0-3.645.76V8.065a2.735,2.735,0,1,0-5.47,0V29.939a2.733,2.733,0,0,0,4.881,1.692,9.115,9.115,0,1,0,4.234-17.185m0,12.918a3.645,3.645,0,1,1,3.645-3.645,3.646,3.646,0,0,1-3.645,3.645" transform="translate(30.077 3.985)" fill="#0077c0"/>
        <path id="Path_14" data-name="Path 14" d="M72.3,10.546a9.118,9.118,0,0,0-4.238,1.04,2.732,2.732,0,0,0-4.877,1.7V26.042a2.735,2.735,0,0,0,5.47,0V19.77c0-.068,0-.133.005-.2a3.647,3.647,0,0,1,7.28,0c0,.065.005.129.005.2v6.272a2.735,2.735,0,0,0,5.47,0v-6.2c0-.026,0-.052-.005-.08,0-.051.005-.1.005-.152A9.092,9.092,0,0,0,72.3,10.546" transform="translate(47.233 7.884)" fill="#0077c0"/>
      </g>
    </g>
    <rect id="Rectangle_15" data-name="Rectangle 15" width="69" height="18" rx="4" transform="translate(306 34)" fill="#ff4678"/>
    <text id="_3D_Sham" data-name="3D Sham" transform="translate(313 47)" fill="#fff" font-size="13" font-family="Metropolis-SemiBold, Metropolis" font-weight="600"><tspan x="0" y="0">3D </tspan><tspan y="0" font-family="Metropolis-Regular, Metropolis" font-weight="400">Sham</tspan></text>
  </g>
</svg>
