<svg xmlns="http://www.w3.org/2000/svg" xmlns:xlink="http://www.w3.org/1999/xlink" width="102" height="102" viewBox="0 0 102 102">
  <defs>
    <clipPath id="clip-path">
      <rect id="Rectangle_20" data-name="Rectangle 20" width="77" height="67" fill="#35174d"/>
    </clipPath>
  </defs>
  <g id="Group_36" data-name="Group 36" transform="translate(-760 -1084)">
    <g id="Group_9" data-name="Group 9" transform="translate(772 1101)">
      <g id="Group_8" data-name="Group 8" clip-path="url(#clip-path)">
        <path id="Path_17" data-name="Path 17" d="M67.676,21.717a1.589,1.589,0,0,0-2.2,1.473V38.146c-6.833,2.63-16.579,4.13-26.977,4.13s-20.147-1.5-26.978-4.13V23.191a1.589,1.589,0,0,0-2.2-1.473C1.617,24.942,0,28.658,0,31.208V67.445c0,4.178,4.11,7.8,11.886,10.464C19.019,80.356,28.47,81.7,38.5,81.7s19.481-1.348,26.613-3.794C72.89,75.241,77,71.623,77,67.445V31.208c0-2.549-1.618-6.265-9.324-9.491M8.345,25.691V36.724l-.125-.064-.24-.13q-.22-.121-.431-.242l-.232-.136c-.141-.084-.278-.168-.412-.253-.065-.041-.132-.082-.2-.124q-.255-.166-.493-.333L6.149,35.4c-.178-.127-.348-.254-.511-.382-.049-.039-.095-.078-.143-.117-.111-.09-.22-.18-.323-.27-.054-.048-.106-.1-.158-.143q-.138-.126-.266-.252c-.049-.049-.1-.1-.145-.145-.085-.088-.165-.176-.242-.264-.038-.043-.078-.086-.114-.13-.1-.12-.2-.24-.282-.36L3.941,33.3c-.093-.13-.176-.26-.252-.391-.024-.041-.044-.082-.066-.123-.049-.09-.1-.18-.137-.27-.022-.048-.041-.1-.061-.144-.034-.084-.065-.168-.092-.253-.016-.048-.031-.1-.044-.144-.024-.088-.043-.177-.059-.265-.008-.041-.017-.083-.023-.124a2.745,2.745,0,0,1-.029-.383c0-1.828,1.855-3.785,5.168-5.517M17.31,76.182l16.167-23.61,7.718,15.8a1.585,1.585,0,0,0,2.679.278L49.2,61.78l8.352,14.892A93.005,93.005,0,0,1,38.5,78.512a89.761,89.761,0,0,1-21.191-2.33m56.514-8.737c0,3.038-4.886,6.276-13.054,8.46L50.8,58.125a1.585,1.585,0,0,0-2.637-.2L42.927,64.68,35.132,48.718a1.585,1.585,0,0,0-2.735-.2L14.072,75.28C7.21,73.13,3.177,70.2,3.177,67.445V37.118l.116.1.1.084c.112.092.226.184.344.276l.053.04q.157.121.322.243l.12.087q.153.11.313.22l.095.066q.2.138.417.275l.118.075c.113.071.227.142.345.213l.138.084c.155.092.312.184.475.276l.044.025q.227.127.465.255l.156.082q.207.109.422.218l.129.065q.273.136.559.272l.14.065q.231.108.471.215l.174.078c.206.091.415.182.63.272,7.233,3.028,17.868,4.766,29.178,4.766S60.441,43.729,67.676,40.7c.216-.09.425-.181.631-.272l.17-.076q.244-.109.478-.219l.133-.062q.289-.137.565-.274l.117-.059q.222-.112.435-.224l.148-.079c.163-.087.324-.175.48-.263l.031-.017c.164-.093.323-.186.479-.279l.133-.08q.179-.109.35-.217l.114-.072q.215-.138.419-.277l.091-.063q.162-.111.316-.223l.119-.086q.168-.123.327-.246l.047-.036c.119-.093.234-.186.347-.279l.1-.081.118-.1Zm-.029-35.853c-.006.041-.016.082-.023.123-.016.089-.035.177-.059.266-.013.048-.028.1-.044.143-.028.085-.058.169-.093.254-.02.048-.039.1-.061.143-.041.091-.088.182-.138.273-.022.04-.041.08-.065.12-.077.131-.16.261-.253.392l-.018.024c-.088.123-.185.245-.288.368-.035.042-.074.084-.111.126-.078.089-.159.178-.246.267-.046.048-.094.1-.143.143q-.129.127-.267.253c-.052.047-.1.094-.158.142-.1.09-.212.181-.323.271-.048.039-.094.078-.144.117-.163.128-.332.255-.51.382l-.072.049q-.235.165-.486.329c-.066.043-.136.086-.2.128-.131.083-.265.165-.4.247l-.242.141q-.2.117-.418.234c-.084.046-.168.092-.254.138l-.119.061V25.69c3.315,1.734,5.17,3.691,5.17,5.518a2.8,2.8,0,0,1-.029.384" transform="translate(0 -14.703)" fill="#35174d"/>
        <path id="Path_18" data-name="Path 18" d="M60.435,30.214A5.5,5.5,0,0,1,56.366,28.4l-1.945,2.2a7.944,7.944,0,0,0,6.17,2.605c3.577,0,5.925-1.931,5.925-4.6a3.755,3.755,0,0,0-3.22-3.616,3.7,3.7,0,0,0,2.885-3.548c0-2.448-2.169-4.222-5.634-4.222a7.2,7.2,0,0,0-5.835,2.74l1.9,2.021a4.933,4.933,0,0,1,3.621-1.8c1.52,0,2.571.719,2.571,1.841,0,1.1-1.006,1.729-2.683,1.729l-1.767-.022v2.83h1.767c2.079-.022,3,.584,3,1.774,0,1.1-.984,1.886-2.683,1.886" transform="translate(-37.132 -11.719)" fill="#35174d"/>
        <path id="Path_19" data-name="Path 19" d="M104.789,33.179c3.353,0,5.88-2.179,5.88-5.345,0-3.054-2.347-4.9-5.187-4.9a5.525,5.525,0,0,0-3.8,1.46c.291-2.605,1.655-4.267,3.644-4.267a4.6,4.6,0,0,1,3.13,1.258l1.565-2.515a7.3,7.3,0,0,0-4.717-1.662c-4.248,0-7.042,3.436-7.042,8.242,0,4.491,2.034,7.725,6.528,7.725m-.268-7.546a2.39,2.39,0,1,1,.089,4.738c-1.721,0-2.548-1.055-2.839-2.942a2.875,2.875,0,0,1,2.75-1.8" transform="translate(-67.045 -11.719)" fill="#35174d"/>
        <path id="Path_20" data-name="Path 20" d="M150.535,33.179c4.046,0,6.908-3.3,6.908-7.994,0-4.671-2.862-7.972-6.908-7.972s-6.886,3.3-6.886,7.972c0,4.693,2.839,7.994,6.886,7.994m0-12.958c2.079,0,3.51,2.067,3.51,4.963s-1.431,4.985-3.51,4.985c-2.057,0-3.51-2.089-3.51-4.985s1.453-4.963,3.51-4.963" transform="translate(-98.014 -11.719)" fill="#35174d"/>
        <path id="Path_21" data-name="Path 21" d="M184.124,6.09a3.045,3.045,0,1,0-3.031-3.045,3.041,3.041,0,0,0,3.031,3.045m0-4.175A1.13,1.13,0,1,1,183,3.045a1.129,1.129,0,0,1,1.125-1.13" transform="translate(-123.563)" fill="#35174d"/>
        <path id="Path_22" data-name="Path 22" d="M176.133,122.962a3.689,3.689,0,1,0,3.673,3.689,3.685,3.685,0,0,0-3.673-3.689m0,5.16a1.47,1.47,0,1,1,1.464-1.47,1.469,1.469,0,0,1-1.464,1.47" transform="translate(-117.673 -84.735)" fill="#ff4678"/>
      </g>
    </g>
    <rect id="Rectangle_64" data-name="Rectangle 64" width="102" height="102" transform="translate(760 1084)" fill="none"/>
  </g>
</svg>
