<svg xmlns="http://www.w3.org/2000/svg" xmlns:xlink="http://www.w3.org/1999/xlink" width="112" height="37.064" viewBox="0 0 112 37.064">
  <defs>
    <clipPath id="clip-path">
      <rect id="Rectangle_13" data-name="Rectangle 13" width="111.773" height="34.558" fill="#fff"/>
    </clipPath>
  </defs>
  <g id="Group_18" data-name="Group 18" transform="translate(-886 -2663)">
    <g id="Group_17" data-name="Group 17" transform="translate(886 2665.506)">
      <g id="Group_2" data-name="Group 2" transform="translate(0 0)" clip-path="url(#clip-path)">
        <path id="Path_4" data-name="Path 4" d="M16.148,12.861l-.005.03c-.05.3-.1.592-.158.887q-.2,1.042-.439,2.061a42.233,42.233,0,0,1-5,12.14c-.422.691-.859,1.366-1.319,2.028A1.37,1.37,0,1,1,7.02,28.387a.074.074,0,0,1,.016-.02l.066-.076h0q.741-.857,1.411-1.776a27.238,27.238,0,0,0,5.1-13.332l.035-.36c0-.059.011-.118.014-.176a2.714,2.714,0,0,0,1.453.418,2.789,2.789,0,0,0,1.036-.2" transform="translate(2.112 3.966)" fill="#fff"/>
        <path id="Path_5" data-name="Path 5" d="M14.8,11.368a1.371,1.371,0,0,1-2.311.825,1.62,1.62,0,0,1-.141-.159l-.007-.009a1.357,1.357,0,0,1-.265-.665,1.512,1.512,0,0,1-.008-.155,1.48,1.48,0,0,1,.008-.152,1.37,1.37,0,0,1,2.732.152,1.161,1.161,0,0,1-.005.117l0,.046" transform="translate(3.785 3.085)" fill="#fff"/>
        <path id="Path_6" data-name="Path 6" d="M13.223,11.7a15.678,15.678,0,0,1-6.6,3.1c-.192.039-.384.076-.577.109-.155.026-.31.049-.466.071C5.5,14.984,5.42,15,5.342,15c-.235.029-.473.053-.709.07-.08.008-.159.013-.239.017s-.185.011-.278.014c-.114.005-.23.009-.344.012s-.226,0-.338,0H3.423a3.426,3.426,0,0,1,0-6.852c.114,0,.231,0,.345,0s.229.005.343.012l.121.007c.131.005.263.013.394.025.109.008.218.017.327.029s.217.021.324.035.217.026.323.041c.147.021.292.043.437.068l.152.026.067.012.084.017.1.018c.07.014.138.028.206.043a1.313,1.313,0,0,1,.129.028.305.305,0,0,1,.037.007l.039.009c.049.009.1.021.146.033s.121.028.18.043h.005c.221.053.439.112.655.175l.229.068.225.071c.075.025.151.05.226.076.15.051.3.1.445.16l.221.085c.146.056.29.117.436.179.071.03.143.062.214.095s.143.064.214.1l.213.1c.141.07.281.139.419.211l.208.11c.137.074.272.148.406.227.11.063.218.127.326.193l.21.131c.263.166.52.34.771.52.07.05.139.1.208.152.138.1.276.209.41.315" transform="translate(0 2.594)" fill="#fff"/>
        <path id="Path_7" data-name="Path 7" d="M7.406,1.416c-.067-.047-.133-.095-.2-.141-.016-.011-.033-.021-.049-.033s-.032-.022-.049-.033c-.063-.043-.127-.087-.192-.127l-.062-.039c-.013-.009-.026-.018-.042-.028Q6.235.645,5.624.326L5.367.194c.022.016.046.029.068.045L5.363.193h0C5.3.163,5.247.133,5.188.1A1.353,1.353,0,0,0,4.667,0,1.373,1.373,0,0,0,3.548.581c-.033.053-.063.105-.095.156L3.461.722c-.091.147-.18.3-.269.447-.016.03-.034.06-.051.091A25.578,25.578,0,0,0,1.469,4.7a3.406,3.406,0,0,0-.311,1.474A3.483,3.483,0,0,0,4.192,9.521H4.2l.043,0,.382.039.08.007c.181.017.361.038.54.06l.267.037.264.041c.089.013.179.029.268.045.176.032.351.066.525.1s.348.078.52.118l.257.064a17.079,17.079,0,0,1,6.556,3.335l.164.141-.014-.282A15.75,15.75,0,0,0,7.406,1.416M4.933,9.53h0" transform="translate(0.363 0)" fill="#fff"/>
        <path id="Path_8" data-name="Path 8" d="M7.406,23.568c-.067.047-.133.095-.2.141-.016.011-.033.021-.049.033s-.032.022-.049.033c-.063.043-.127.087-.192.127l-.062.039c-.013.009-.026.018-.042.028q-.575.37-1.186.69l-.257.131c.022-.016.046-.029.068-.045l-.072.046h0c-.056.029-.113.059-.172.088a1.353,1.353,0,0,1-.521.1A1.373,1.373,0,0,1,3.548,24.4c-.033-.053-.063-.105-.095-.156l.008.014c-.091-.147-.18-.3-.269-.447-.016-.03-.034-.06-.051-.091a25.578,25.578,0,0,1-1.671-3.439,3.406,3.406,0,0,1-.311-1.474,3.483,3.483,0,0,1,3.034-3.348H4.2l.043,0,.382-.039.08-.007c.181-.017.361-.038.54-.06l.267-.037.264-.041c.089-.013.179-.029.268-.045.176-.032.351-.066.525-.1s.348-.078.52-.118l.257-.064a17.079,17.079,0,0,0,6.556-3.335l.164-.141-.014.282A15.75,15.75,0,0,1,7.406,23.568M4.933,15.453h0" transform="translate(0.363 3.597)" fill="#fff"/>
        <path id="Path_9" data-name="Path 9" d="M41.895,22.413l-6.367-6.682,6.391-6.944A2.057,2.057,0,1,0,38.893,6L32.87,12.543V7.383a2.055,2.055,0,1,0-4.11,0V23.825a2.055,2.055,0,1,0,4.11,0V18.906l6.047,6.346a2.057,2.057,0,0,0,2.978-2.839" transform="translate(9.019 1.671)" fill="#fff"/>
        <path id="Path_10" data-name="Path 10" d="M28.933,9.442a2.056,2.056,0,0,0,0-4.112H19.362a2.077,2.077,0,0,0-2.077,2.077V24.047a1.837,1.837,0,0,0,1.836,1.836h9.811a2.056,2.056,0,0,0,0-4.112H21.4V17.663h6.156a2.055,2.055,0,0,0,0-4.11H21.4V9.442Z" transform="translate(5.421 1.672)" fill="#fff"/>
        <path id="Path_11" data-name="Path 11" d="M65.411,17.4V12.6a2.054,2.054,0,0,0-3.669-1.27,6.851,6.851,0,1,0,0,12.134,2.054,2.054,0,0,0,3.669-1.272V17.4Zm-6.852,2.86a2.741,2.741,0,1,1,2.74-2.741h0a2.74,2.74,0,0,1-2.74,2.74" transform="translate(16.216 3.308)" fill="#fff"/>
        <path id="Path_12" data-name="Path 12" d="M88.36,17.4h0V12.6a2.054,2.054,0,0,0-3.669-1.27,6.851,6.851,0,1,0,0,12.134,2.054,2.054,0,0,0,3.669-1.272V17.4Zm-6.852,2.86a2.741,2.741,0,1,1,2.74-2.741h0a2.74,2.74,0,0,1-2.74,2.74" transform="translate(23.412 3.308)" fill="#fff"/>
        <path id="Path_13" data-name="Path 13" d="M47.086,12.182a6.83,6.83,0,0,0-2.74.571V7.386a2.056,2.056,0,0,0-4.112,0V23.828A2.054,2.054,0,0,0,43.9,25.1a6.851,6.851,0,1,0,3.183-12.918m0,9.71a2.74,2.74,0,1,1,2.74-2.74,2.74,2.74,0,0,1-2.74,2.74" transform="translate(12.617 1.672)" fill="#fff"/>
        <path id="Path_14" data-name="Path 14" d="M70.035,10.546a6.854,6.854,0,0,0-3.185.782A2.054,2.054,0,0,0,63.183,12.6v9.592a2.056,2.056,0,0,0,4.112,0V17.479c0-.051,0-.1,0-.148a2.741,2.741,0,0,1,5.472,0c0,.049,0,.1,0,.148v4.715a2.056,2.056,0,0,0,4.112,0V17.534c0-.02,0-.039,0-.06,0-.038,0-.075,0-.114a6.834,6.834,0,0,0-6.852-6.814" transform="translate(19.814 3.308)" fill="#fff"/>
      </g>
    </g>
    <rect id="Rectangle_43" data-name="Rectangle 43" width="52" height="14" rx="4" transform="translate(946 2663)" fill="#ff4678"/>
    <text id="_3D_Sham" data-name="3D Sham" transform="translate(951 2672)" fill="#fff" font-size="9" font-family="Metropolis-SemiBold, Metropolis" font-weight="600"><tspan x="0" y="0">3D </tspan><tspan y="0" font-family="Metropolis-Regular, Metropolis" font-weight="400">Sham</tspan></text>
  </g>
</svg>
