<svg xmlns="http://www.w3.org/2000/svg" xmlns:xlink="http://www.w3.org/1999/xlink" width="32" height="32" viewBox="0 0 32 32">
  <defs>
    <clipPath id="clip-path">
      <rect id="Rectangle_68" data-name="Rectangle 68" width="29.202" height="19.864" fill="#35174d"/>
    </clipPath>
  </defs>
  <g id="Group_42" data-name="Group 42" transform="translate(0.309)">
    <rect id="Rectangle_70" data-name="Rectangle 70" width="32" height="32" transform="translate(-0.309)" fill="none"/>
    <g id="Group_40" data-name="Group 40" transform="translate(1.301 6.637)">
      <g id="Group_39" data-name="Group 39" transform="translate(0 0)" clip-path="url(#clip-path)">
        <path id="Path_43" data-name="Path 43" d="M24.54,6a.957.957,0,1,0-1.691.9,2.538,2.538,0,0,1,.314,1.191A3.961,3.961,0,0,1,21.221,11a11.461,11.461,0,0,1-5.477,1.973.958.958,0,0,0,.1,1.91c.034,0,.066,0,.1,0a13.384,13.384,0,0,0,6.392-2.32,5.616,5.616,0,0,0,2.746-4.472A4.423,4.423,0,0,0,24.54,6" transform="translate(4.123 1.52)" fill="#35174d"/>
        <path id="Path_44" data-name="Path 44" d="M15.525,14.5a.924.924,0,0,0-.038-.184l-.008-.019a.892.892,0,0,0-.115-.171,1.021,1.021,0,0,0-.075-.117l-2.64-2.714a.958.958,0,0,0-1.374,1.336l.957.983c-6.258-.53-10.316-3.1-10.316-5.526A2.538,2.538,0,0,1,2.23,6.894.957.957,0,1,0,.539,6,4.423,4.423,0,0,0,0,8.086c0,3.846,5.306,6.927,12.421,7.457L11.275,16.72a.958.958,0,1,0,1.374,1.335l2.64-2.712a1.021,1.021,0,0,0,.075-.117.892.892,0,0,0,.115-.171l.008-.019a.924.924,0,0,0,.038-.184,1,1,0,0,0,.033-.17v-.013a1,1,0,0,0-.033-.17" transform="translate(0 1.52)" fill="#35174d"/>
        <path id="Path_45" data-name="Path 45" d="M6.782,7.287a2.432,2.432,0,0,1-1.724-.727L4.109,7.655a3.608,3.608,0,0,0,2.76,1.114c1.608,0,2.645-.833,2.645-2A1.616,1.616,0,0,0,8.138,5.215,1.565,1.565,0,0,0,9.368,3.7c0-1.047-.939-1.821-2.507-1.821A3.263,3.263,0,0,0,4.246,3.055l.928,1.008a2.14,2.14,0,0,1,1.512-.707c.6,0,1,.241,1,.649,0,.387-.359.61-1.028.6H5.871V6l.784-.01c.844,0,1.163.213,1.163.631,0,.387-.369.668-1.037.668" transform="translate(1.138 0.519)" fill="#35174d"/>
        <path id="Path_46" data-name="Path 46" d="M12.166,4.3a2.524,2.524,0,0,0-1.54.522c.144-.939.649-1.5,1.433-1.5a1.979,1.979,0,0,1,1.318.5l.765-1.249a3.318,3.318,0,0,0-2.093-.7c-1.945,0-3.176,1.452-3.176,3.564,0,1.955.94,3.322,2.926,3.322a2.392,2.392,0,0,0,2.614-2.334A2.105,2.105,0,0,0,12.166,4.3M11.7,7.355c-.678,0-.969-.358-1.075-1.094a1.12,1.12,0,0,1,1.037-.639.943.943,0,0,1,1.055.871.915.915,0,0,1-1.017.862" transform="translate(2.458 0.519)" fill="#35174d"/>
        <path id="Path_47" data-name="Path 47" d="M19.94,5.312a3.081,3.081,0,1,0-6.12,0A3.138,3.138,0,0,0,16.88,8.76c1.8,0,3.06-1.424,3.06-3.448m-4.416,0c0-1.133.562-1.937,1.356-1.937s1.366.8,1.366,1.937-.563,1.946-1.366,1.946-1.356-.813-1.356-1.946" transform="translate(3.829 0.519)" fill="#35174d"/>
        <path id="Path_48" data-name="Path 48" d="M19.944,2.949a1.474,1.474,0,1,0-1.475-1.475,1.475,1.475,0,0,0,1.475,1.475m0-1.991a.517.517,0,1,1-.517.516.516.516,0,0,1,.517-.516" transform="translate(5.117 0)" fill="#35174d"/>
      </g>
    </g>
  </g>
</svg>
