<svg xmlns="http://www.w3.org/2000/svg" xmlns:xlink="http://www.w3.org/1999/xlink" width="24" height="24" viewBox="0 0 24 24">
  <defs>
    <clipPath id="clip-path">
      <rect id="Rectangle_456" data-name="Rectangle 456" width="21" height="21" transform="translate(0 0)" fill="#fff"/>
    </clipPath>
  </defs>
  <g id="Group_88" data-name="Group 88" transform="translate(-1697 -134)">
    <g id="Group_112" data-name="Group 112" transform="translate(0.5 -0.5)">
      <rect id="Rectangle_474" data-name="Rectangle 474" width="24" height="24" transform="translate(1696.5 134.5)" fill="none"/>
      <g id="Group_87" data-name="Group 87" transform="translate(1698 136)">
        <g id="Group_86" data-name="Group 86" transform="translate(0 0)" clip-path="url(#clip-path)">
          <path id="Path_66" data-name="Path 66" d="M20.808,5.347a.954.954,0,0,1-.954-.954V1.907H17.36A.954.954,0,1,1,17.36,0h3.448a.954.954,0,0,1,.954.954v3.44A.954.954,0,0,1,20.808,5.347Z" transform="translate(-0.761 0)" fill="#fff"/>
          <path id="Line_9" data-name="Line 9" d="M-.046,6.7A.951.951,0,0,1-.721,6.42a.954.954,0,0,1,0-1.349L5.071-.721a.954.954,0,0,1,1.349,0,.954.954,0,0,1,0,1.349L.628,6.42A.951.951,0,0,1-.046,6.7Z" transform="translate(14.3 1)" fill="#fff"/>
          <path id="Path_67" data-name="Path 67" d="M.954,5.356A.954.954,0,0,1,0,4.4V.954A.954.954,0,0,1,.954,0h3.44a.954.954,0,0,1,0,1.907H1.907V4.4A.954.954,0,0,1,.954,5.356Z" transform="translate(0 0)" fill="#fff"/>
          <path id="Line_10" data-name="Line 10" d="M5.746,6.7a.951.951,0,0,1-.674-.279L-.721.628a.954.954,0,0,1,0-1.349.954.954,0,0,1,1.349,0L6.42,5.071A.954.954,0,0,1,5.746,6.7Z" transform="translate(1 1)" fill="#fff"/>
          <path id="Path_68" data-name="Path 68" d="M4.4,21.762H.954A.954.954,0,0,1,0,20.809v-3.44a.954.954,0,1,1,1.907,0v2.486H4.4a.954.954,0,0,1,0,1.907Z" transform="translate(0 -0.762)" fill="#fff"/>
          <path id="Line_11" data-name="Line 11" d="M-.046,6.7A.951.951,0,0,1-.721,6.42a.954.954,0,0,1,0-1.349L5.071-.721a.954.954,0,0,1,1.349,0,.954.954,0,0,1,0,1.349L.628,6.42A.951.951,0,0,1-.046,6.7Z" transform="translate(1.001 14.301)" fill="#fff"/>
          <path id="Path_69" data-name="Path 69" d="M20.808,21.761h-3.44a.954.954,0,1,1,0-1.907h2.486V17.36a.954.954,0,0,1,1.907,0v3.448A.954.954,0,0,1,20.808,21.761Z" transform="translate(-0.762 -0.762)" fill="#fff"/>
          <path id="Line_12" data-name="Line 12" d="M5.746,6.7a.951.951,0,0,1-.674-.279L-.721.628a.954.954,0,0,1,0-1.349.954.954,0,0,1,1.349,0L6.42,5.071A.954.954,0,0,1,5.746,6.7Z" transform="translate(14.301 14.3)" fill="#fff"/>
        </g>
      </g>
    </g>
  </g>
</svg>
