<svg xmlns="http://www.w3.org/2000/svg" xmlns:xlink="http://www.w3.org/1999/xlink" width="102" height="102" viewBox="0 0 102 102">
  <defs>
    <clipPath id="clip-path">
      <rect id="Rectangle_22" data-name="Rectangle 22" width="70" height="70.22" fill="#35174d"/>
    </clipPath>
  </defs>
  <g id="Group_35" data-name="Group 35" transform="translate(-1059 -1084)">
    <g id="Group_13" data-name="Group 13" transform="translate(1075 1100)">
      <g id="Group_12" data-name="Group 12" clip-path="url(#clip-path)">
        <path id="Path_26" data-name="Path 26" d="M70.75,92.009H43.6a1.885,1.885,0,0,0,.059-.449V62.612a10.812,10.812,0,1,0-3.786,0V91.561a1.885,1.885,0,0,0,.059.449H12.782a1.893,1.893,0,0,0,0,3.786H70.75a1.893,1.893,0,0,0,0-3.786M34.741,51.97A7.025,7.025,0,1,1,41.766,59a7.034,7.034,0,0,1-7.026-7.026" transform="translate(-6.766 -25.575)" fill="#35174d"/>
        <path id="Path_27" data-name="Path 27" d="M39.018,57.649a1.893,1.893,0,1,0,2.473-2.866,19.5,19.5,0,0,1,0-29.543,1.893,1.893,0,1,0-2.473-2.866,23.288,23.288,0,0,0,0,35.276" transform="translate(-19.223 -13.616)" fill="#35174d"/>
        <path id="Path_28" data-name="Path 28" d="M124.993,54.783a1.893,1.893,0,1,0,2.473,2.866,23.288,23.288,0,0,0,0-35.276,1.893,1.893,0,0,0-2.473,2.867,19.5,19.5,0,0,1,0,29.543" transform="translate(-77.261 -13.617)" fill="#35174d"/>
        <path id="Path_29" data-name="Path 29" d="M4.43,68.523a31.454,31.454,0,0,1-.644-6.338c0-.848.034-1.7.1-2.543a1.893,1.893,0,1,0-3.774-.3c-.076.94-.114,1.9-.114,2.846a35.239,35.239,0,0,0,.722,7.1,1.893,1.893,0,1,0,3.708-.764" transform="translate(0 -35.79)" fill="#35174d"/>
        <path id="Path_30" data-name="Path 30" d="M16.27,111.13a1.893,1.893,0,0,0-3.231,1.973,35.11,35.11,0,0,0,6.351,7.684,1.893,1.893,0,1,0,2.547-2.8,31.34,31.34,0,0,1-5.667-6.857" transform="translate(-7.93 -68.491)" fill="#35174d"/>
        <path id="Path_31" data-name="Path 31" d="M8.853,19.261a1.892,1.892,0,0,0,2.505-.944,31.212,31.212,0,0,1,4.786-7.5,1.893,1.893,0,1,0-2.869-2.47,35.009,35.009,0,0,0-5.366,8.405,1.893,1.893,0,0,0,.944,2.505" transform="translate(-4.809 -4.78)" fill="#35174d"/>
        <path id="Path_32" data-name="Path 32" d="M152.538,10.15a1.893,1.893,0,0,0,3.231-1.973A35.11,35.11,0,0,0,149.418.493a1.893,1.893,0,1,0-2.547,2.8,31.34,31.34,0,0,1,5.667,6.857" transform="translate(-90.879 0)" fill="#35174d"/>
        <path id="Path_33" data-name="Path 33" d="M176.829,48.472a1.893,1.893,0,1,0-3.708.764,31.454,31.454,0,0,1,.644,6.338c0,.848-.034,1.7-.1,2.543a1.893,1.893,0,0,0,1.735,2.039c.052,0,.1.006.154.006a1.893,1.893,0,0,0,1.885-1.741c.076-.94.114-1.9.114-2.846a35.239,35.239,0,0,0-.722-7.1" transform="translate(-107.551 -29.181)" fill="#35174d"/>
        <path id="Path_34" data-name="Path 34" d="M161.488,100.9a1.893,1.893,0,0,0-2.505.944,31.2,31.2,0,0,1-4.786,7.5,1.893,1.893,0,1,0,2.869,2.47,35.01,35.01,0,0,0,5.366-8.405,1.893,1.893,0,0,0-.944-2.505" transform="translate(-95.531 -62.595)" fill="#35174d"/>
        <path id="Path_35" data-name="Path 35" d="M84.914,58.022A4.588,4.588,0,1,0,89.5,62.61a4.588,4.588,0,0,0-4.588-4.588" transform="translate(-49.914 -36.054)" fill="#ff4878"/>
      </g>
    </g>
    <rect id="Rectangle_63" data-name="Rectangle 63" width="102" height="102" transform="translate(1059 1084)" fill="none"/>
  </g>
</svg>
