<svg xmlns="http://www.w3.org/2000/svg" xmlns:xlink="http://www.w3.org/1999/xlink" width="32" height="32" viewBox="0 0 32 32">
  <defs>
    <clipPath id="clip-path">
      <rect id="Rectangle_71" data-name="Rectangle 71" width="25.641" height="28.984" fill="#35174d"/>
    </clipPath>
  </defs>
  <g id="Group_48" data-name="Group 48" transform="translate(0.309)">
    <rect id="Rectangle_73" data-name="Rectangle 73" width="32" height="32" transform="translate(-0.309)" fill="none"/>
    <g id="Group_47" data-name="Group 47" transform="translate(3.082 1.508)">
      <g id="Group_44" data-name="Group 44">
        <g id="Group_43" data-name="Group 43" clip-path="url(#clip-path)">
          <path id="Path_49" data-name="Path 49" d="M22.8,6.45a.864.864,0,0,1,.863.867v9.26a.867.867,0,0,1-.426.747L7.328,26.715a.863.863,0,0,1-1.3-.747V16.4a.867.867,0,0,1,.436-.753L22.378,6.563A.859.859,0,0,1,22.8,6.45Zm-.863,9.631V8.806l-14.188,8.1v7.547Z" transform="translate(1.973 2.15)" fill="#35174d"/>
          <path id="Path_50" data-name="Path 50" d="M.863,10.021a.859.859,0,0,1,.409.1l8,4.324a.867.867,0,0,1,.454.763v9.565a.863.863,0,0,1-1.308.742l-8-4.848A.867.867,0,0,1,0,19.929V10.887a.864.864,0,0,1,.863-.867ZM8,15.729,1.726,12.338v7.1L8,23.242Z" transform="translate(0 3.34)" fill="#35174d"/>
          <path id="Path_51" data-name="Path 51" d="M5.807,17.6a.867.867,0,0,1-.416-1.627l1.933-1.065L7.3,9.749l-4.831-3a.869.869,0,0,1,.018-1.485L11.228.119a.863.863,0,0,1,1.3.748v9.457a.868.868,0,0,1-.355.7l-3.13,2.291.011,2.1a.867.867,0,0,1-.448.765L6.221,17.5A.856.856,0,0,1,5.807,17.6ZM4.592,6.032,8.611,8.527a.868.868,0,0,1,.409.733l.01,1.92,1.771-1.3v-7.5Z" transform="translate(0.673 0)" fill="#35174d"/>
        </g>
      </g>
      <path id="Line_4" data-name="Line 4" d="M4.414,4.929A.857.857,0,0,1,3.833,4.7L-.368.857A.869.869,0,0,1-.425-.367.86.86,0,0,1,.794-.424L5,3.421a.869.869,0,0,1,.057,1.224A.859.859,0,0,1,4.414,4.929Z" transform="translate(12.125 10.109)" fill="#35174d"/>
      <g id="Group_46" data-name="Group 46">
        <g id="Group_45" data-name="Group 45" clip-path="url(#clip-path)">
          <path id="Path_52" data-name="Path 52" d="M.864,13.808a.867.867,0,0,1-.456-1.6l2.321-1.446V4.726a.863.863,0,0,1,1.316-.737L9.284,7.24a.869.869,0,0,1,0,1.474L4.063,11.967l-.035.022L1.318,13.678A.856.856,0,0,1,.864,13.808ZM4.455,6.28v3.4L7.192,7.979Z" transform="translate(0 1.287)" fill="#35174d"/>
          <path id="Line_5" data-name="Line 5" d="M12.652,9.683a.856.856,0,0,1-.488-.153L-.276.931A.869.869,0,0,1-.5-.275.86.86,0,0,1,.7-.5l12.44,8.6a.867.867,0,0,1-.49,1.581Z" transform="translate(12.125 0.65)" fill="#35174d"/>
        </g>
      </g>
      <path id="Path_53" data-name="Path 53" d="M14.164,11.486,10.739,8.225,7.311,10.255v2.559l-1.934.82.15,1.324,1.577.527Z" transform="translate(1.76 2.742)" fill="#35174d"/>
    </g>
  </g>
</svg>
