<svg xmlns="http://www.w3.org/2000/svg" width="20" height="15" viewBox="0 0 20 15">
  <g id="Layer_2" data-name="Layer 2" transform="translate(0)">
    <g id="Layer_1" data-name="Layer 1" transform="translate(0)">
      <path id="Path_42" data-name="Path 42" d="M19.834,1.616A2.5,2.5,0,0,0,17.5,0H2.5A2.5,2.5,0,0,0,.15,1.666,2.325,2.325,0,0,0,0,2.5v10a2.5,2.5,0,0,0,1.562,2.316A2.453,2.453,0,0,0,2.5,15h15a2.287,2.287,0,0,0,.891-.175,2.45,2.45,0,0,0,1.3-1.109A2.5,2.5,0,0,0,20,12.5V2.5a2.456,2.456,0,0,0-.166-.884ZM1.666,2.5A.837.837,0,0,1,2.5,1.666h15a.837.837,0,0,1,.834.834v.159l-6.644,5L10.312,8.725,10,8.959l-.312-.244L8.294,7.675,1.666,2.691Zm0,10V4.775L6.909,8.716,1.684,12.641A.625.625,0,0,1,1.666,12.5Zm1.875.834L8.3,9.759l1.2.906a.825.825,0,0,0,1,0l1.191-.9,4.725,3.569ZM18.334,12.5a.625.625,0,0,1-.025.175L13.075,8.716l5.259-3.975Z" transform="translate(0)" fill="#ff4678"/>
    </g>
  </g>
</svg>
